<svg width="1280" height="79" xmlns="http://www.w3.org/2000/svg" xmlns:xlink="http://www.w3.org/1999/xlink" xml:space="preserve" overflow="hidden"><defs><clipPath id="clip0"><rect x="0" y="134" width="1280" height="79"/></clipPath></defs><g clip-path="url(#clip0)" transform="matrix(1 0 0 1 0 -134)"><path d="M11.5729-43.5556 0.871528-43.5556 0.871528-41.875 19.5382 0.496528 24.2674 0.496528 42.7465-41.875 42.7465-43.5556 32.0417-43.5556 22.0868-18.9132 21.7778-18.9132Z" fill="#E79759" transform="matrix(1 0 0 1.00811 25.6563 195.381)"/><path d="M47.5347-21.7153C47.5347-51.8299 2.86111-51.8299 2.86111-21.7153 2.86111 8.46181 47.5347 8.46181 47.5347-21.7153ZM14.309-21.7153C14.309-37.3958 36.1493-37.3958 36.1493-21.7153 36.1493-5.90972 14.309-5.90972 14.309-21.7153Z" fill="#E79759" transform="matrix(1 0 0 1.00811 69.3339 195.381)"/><path d="M11.9479-33.5972 11.9479 0C15.6181 0 19.2882 0 22.9583 0L22.9583-33.5972 33.5972-33.5972C33.5972-36.9583 33.5972-40.2569 33.5972-43.5556L1.24306-43.5556C1.24306-40.2569 1.24306-36.9583 1.24306-33.5972Z" fill="#E79759" transform="matrix(1 0 0 1.00811 119.731 195.381)"/><path d="M33.7847-15.4306C44.7986-22.8958 41.6875-43.4931 24.5764-43.5556 18.2292-43.5556 11.7604-43.5556 5.47569-43.5556 5.47569-28.9931 5.47569-14.4965 5.47569 0 9.08333 0 12.8785 0 16.6111 0L16.6111-12.816 22.3993-12.816 29.8646 0 42.309 0 42.309-1.61806ZM24.5764-22.8333 16.6111-22.8333C16.6111-26.3194 16.6111-30.0521 16.6111-33.5972 19.2257-33.5972 21.9653-33.6597 24.5764-33.5972 30.9236-33.5382 30.6111-22.8333 24.5764-22.8333Z" fill="#E79759" transform="matrix(1 0 0 1.00811 154.698 195.381)"/><path d="M32.7292-43.5556C22.5243-43.5556 15.6181-43.5556 5.5382-43.5556 5.5382-29.1181 5.5382-14.559 5.5382 0 15.6181 0 23.0833 0 33.2882 0 33.2882-3.29861 33.2882-6.65625 33.2882-9.89236 26.7535-9.89236 23.0208-9.89236 16.6111-9.89236 16.6111-12.5069 16.6111-14.9965 16.6111-17.5451L31.4201-17.5451C31.4201-20.8438 31.4201-24.1424 31.4201-27.4375L16.6111-27.4375 16.6111-33.5972C23.0208-33.5972 26.2569-33.5972 32.7292-33.5972 32.7292-36.9583 32.7292-40.3194 32.7292-43.5556Z" fill="#E79759" transform="matrix(1 0 0 1.00811 198.189 195.381)"/><path d="M13.2535-13.316C9.45833-13.316 6.22222-13.316 2.48958-13.316 2.23958 5.84722 37.7049 5.35069 37.7049-12.941 37.7049-23.8299 29.2431-24.9514 20.5938-25.8819 16.6736-26.3194 13.441-27.0035 13.6875-30.3021 14.0625-35.4653 25.7604-35.9618 25.7604-30.1771 29.5556-30.1771 32.4167-30.1771 36.3368-30.1771 36.5868-48.9688 2.73611-48.9688 3.11111-30.1771 3.23611-20.7188 9.45833-17.4826 18.9132-16.7986 23.2708-16.5521 26.8785-16.0521 26.8785-13.0035 26.8785-7.90278 13.2535-7.77778 13.2535-13.316Z" fill="#E79759" transform="matrix(1 0 0 1.00811 252.631 195.381)"/><path d="M47.5347-21.7153C47.5347-51.8299 2.86111-51.8299 2.86111-21.7153 2.86111 8.46181 47.5347 8.46181 47.5347-21.7153ZM14.309-21.7153C14.309-37.3958 36.1493-37.3958 36.1493-21.7153 36.1493-5.90972 14.309-5.90972 14.309-21.7153Z" fill="#E79759" transform="matrix(1 0 0 1.00811 292.948 195.381)"/><path d="M16.6736-43.5556C12.8785-43.5556 9.20833-43.5556 5.47569-43.5556L5.47569 0C14.309 0 23.5208 0 32.4792 0 32.4792-3.73264 32.4792-6.28472 32.4792-10.0174L16.6736-10.0174C16.6736-28.559 16.6736-21.0312 16.6736-43.5556Z" fill="#E79759" transform="matrix(1 0 0 1.00811 343.346 195.381)"/><path d="M22.3993-9.39583C19.1632-9.39583 15.7431-11.1389 15.7431-14.684L15.7431-43.5556C12.2569-43.5556 8.58681-43.5556 5.10069-43.5556L5.10069-14.4965C5.10069-4.91667 13.5035 0.621528 22.3993 0.621528 31.3576 0.621528 39.7569-4.91667 39.7569-14.4965L39.7569-43.5556C36.2743-43.5556 32.5417-43.5556 28.9931-43.5556L28.9931-14.684C28.9931-11.1389 25.6354-9.39583 22.3993-9.39583Z" fill="#E79759" transform="matrix(1 0 0 1.00811 377.939 195.381)"/><path d="M11.9479-33.5972 11.9479 0C15.6181 0 19.2882 0 22.9583 0L22.9583-33.5972 33.5972-33.5972C33.5972-36.9583 33.5972-40.2569 33.5972-43.5556L1.24306-43.5556C1.24306-40.2569 1.24306-36.9583 1.24306-33.5972Z" fill="#E79759" transform="matrix(1 0 0 1.00811 422.861 195.381)"/><path d="M18.4792-9.76736 18.4792-33.8472 23.5799-33.8472C23.5799-37.5799 23.5799-39.8819 23.5799-43.5556 16.4896-43.5556 9.45833-43.5556 2.36458-43.5556 2.36458-39.8819 2.36458-37.5799 2.36458-33.8472L7.46528-33.8472 7.46528-9.76736 1.93056-9.76736C1.93056-6.09722 1.93056-3.79514 1.93056 0 9.33333 0 16.6111 0 24.0174 0 24.0174-3.79514 24.0174-6.09722 24.0174-9.76736Z" fill="#E79759" transform="matrix(1 0 0 1.00811 457.828 195.381)"/><path d="M47.5347-21.7153C47.5347-51.8299 2.86111-51.8299 2.86111-21.7153 2.86111 8.46181 47.5347 8.46181 47.5347-21.7153ZM14.309-21.7153C14.309-37.3958 36.1493-37.3958 36.1493-21.7153 36.1493-5.90972 14.309-5.90972 14.309-21.7153Z" fill="#E79759" transform="matrix(1 0 0 1.00811 483.587 195.381)"/><path d="M39.0104 0.0625 42.9931 0.0625 42.9931-43.5556C39.1979-43.5556 35.4028-43.5556 31.6076-43.5556L31.6076-22.2118 9.58333-43.7396 5.5382-43.7396 5.5382 0C9.33333 0 13.191 0 17.0486 0L17.0486-21.4028Z" fill="#E79759" transform="matrix(1 0 0 1.00811 533.984 195.381)"/><path d="M2.86111-21.7778C2.92361-6.90625 14.125 0.496528 25.1979 0.496528 33.2257 0.496528 41.5-2.98611 44.6111-12.0694 46.1042-16.3021 46.1042-20.4688 45.8576-24.8264L25.2604-24.8264 25.2604-15.1806 34.5312-15.1806C32.5417-11.0139 29.6806-9.82986 25.1979-9.82986 18.6042-9.82986 14.3715-14.559 14.3715-21.7778 14.3715-28.434 18.1667-33.9097 25.1979-33.9097 29.6181-33.9097 32.4792-32.4167 34.2847-28.684L45.2326-28.684C43.1181-39.5104 33.9722-44.0521 25.1979-44.1146 14.125-44.1146 2.92361-36.6493 2.86111-21.7778Z" fill="#E79759" transform="matrix(1 0 0 1.00811 599.625 195.381)"/><path d="M32.7292-43.5556C22.5243-43.5556 15.6181-43.5556 5.5382-43.5556 5.5382-29.1181 5.5382-14.559 5.5382 0 15.6181 0 23.0833 0 33.2882 0 33.2882-3.29861 33.2882-6.65625 33.2882-9.89236 26.7535-9.89236 23.0208-9.89236 16.6111-9.89236 16.6111-12.5069 16.6111-14.9965 16.6111-17.5451L31.4201-17.5451C31.4201-20.8438 31.4201-24.1424 31.4201-27.4375L16.6111-27.4375 16.6111-33.5972C23.0208-33.5972 26.2569-33.5972 32.7292-33.5972 32.7292-36.9583 32.7292-40.3194 32.7292-43.5556Z" fill="#E79759" transform="matrix(1 0 0 1.00811 648.778 195.381)"/><path d="M13.2535-13.316C9.45833-13.316 6.22222-13.316 2.48958-13.316 2.23958 5.84722 37.7049 5.35069 37.7049-12.941 37.7049-23.8299 29.2431-24.9514 20.5938-25.8819 16.6736-26.3194 13.441-27.0035 13.6875-30.3021 14.0625-35.4653 25.7604-35.9618 25.7604-30.1771 29.5556-30.1771 32.4167-30.1771 36.3368-30.1771 36.5868-48.9688 2.73611-48.9688 3.11111-30.1771 3.23611-20.7188 9.45833-17.4826 18.9132-16.7986 23.2708-16.5521 26.8785-16.0521 26.8785-13.0035 26.8785-7.90278 13.2535-7.77778 13.2535-13.316Z" fill="#E79759" transform="matrix(1 0 0 1.00811 686.109 195.381)"/><path d="M11.9479-33.5972 11.9479 0C15.6181 0 19.2882 0 22.9583 0L22.9583-33.5972 33.5972-33.5972C33.5972-36.9583 33.5972-40.2569 33.5972-43.5556L1.24306-43.5556C1.24306-40.2569 1.24306-36.9583 1.24306-33.5972Z" fill="#E79759" transform="matrix(1 0 0 1.00811 726.427 195.381)"/><path d="M18.4792-9.76736 18.4792-33.8472 23.5799-33.8472C23.5799-37.5799 23.5799-39.8819 23.5799-43.5556 16.4896-43.5556 9.45833-43.5556 2.36458-43.5556 2.36458-39.8819 2.36458-37.5799 2.36458-33.8472L7.46528-33.8472 7.46528-9.76736 1.93056-9.76736C1.93056-6.09722 1.93056-3.79514 1.93056 0 9.33333 0 16.6111 0 24.0174 0 24.0174-3.79514 24.0174-6.09722 24.0174-9.76736Z" fill="#E79759" transform="matrix(1 0 0 1.00811 761.394 195.381)"/><path d="M47.5347-21.7153C47.5347-51.8299 2.86111-51.8299 2.86111-21.7153 2.86111 8.46181 47.5347 8.46181 47.5347-21.7153ZM14.309-21.7153C14.309-37.3958 36.1493-37.3958 36.1493-21.7153 36.1493-5.90972 14.309-5.90972 14.309-21.7153Z" fill="#E79759" transform="matrix(1 0 0 1.00811 787.152 195.381)"/><path d="M39.0104 0.0625 42.9931 0.0625 42.9931-43.5556C39.1979-43.5556 35.4028-43.5556 31.6076-43.5556L31.6076-22.2118 9.58333-43.7396 5.5382-43.7396 5.5382 0C9.33333 0 13.191 0 17.0486 0L17.0486-21.4028Z" fill="#E79759" transform="matrix(1 0 0 1.00811 837.55 195.381)"/><path d="M21.9653-43.5556 5.5382-43.5556 5.5382 0 21.9653 0C50.3368-0.125 50.3368-43.4306 21.9653-43.5556ZM16.6736-33.4132 21.9653-33.4132C35.8403-33.4132 35.8403-10.1424 21.9653-10.1424L16.6736-10.1424Z" fill="#E79759" transform="matrix(1 0 0 1.00811 903.191 195.381)"/><path d="M32.7292-43.5556C22.5243-43.5556 15.6181-43.5556 5.5382-43.5556 5.5382-29.1181 5.5382-14.559 5.5382 0 15.6181 0 23.0833 0 33.2882 0 33.2882-3.29861 33.2882-6.65625 33.2882-9.89236 26.7535-9.89236 23.0208-9.89236 16.6111-9.89236 16.6111-12.5069 16.6111-14.9965 16.6111-17.5451L31.4201-17.5451C31.4201-20.8438 31.4201-24.1424 31.4201-27.4375L16.6111-27.4375 16.6111-33.5972C23.0208-33.5972 26.2569-33.5972 32.7292-33.5972 32.7292-36.9583 32.7292-40.3194 32.7292-43.5556Z" fill="#E79759" transform="matrix(1 0 0 1.00811 949.357 195.381)"/><path d="M16.6736 0 16.6736-11.1389 24.7014-11.1389C45.5451-11.1389 45.5451-43.4931 24.7014-43.5556 18.2917-43.5556 11.8229-43.5556 5.5382-43.5556 5.5382-28.9931 5.5382-14.4965 5.5382 0 9.20833 0 12.941 0 16.6736 0ZM24.6389-21.1562 16.6736-21.1562C16.6736-24.7014 16.6736-30.0521 16.6736-33.5972 19.2257-33.5972 22.0243-33.6597 24.6389-33.5972 31.1111-33.5382 30.7361-21.1562 24.6389-21.1562Z" fill="#E79759" transform="matrix(1 0 0 1.00811 1003.8 195.381)"/><path d="M33.7847-15.4306C44.7986-22.8958 41.6875-43.4931 24.5764-43.5556 18.2292-43.5556 11.7604-43.5556 5.47569-43.5556 5.47569-28.9931 5.47569-14.4965 5.47569 0 9.08333 0 12.8785 0 16.6111 0L16.6111-12.816 22.3993-12.816 29.8646 0 42.309 0 42.309-1.61806ZM24.5764-22.8333 16.6111-22.8333C16.6111-26.3194 16.6111-30.0521 16.6111-33.5972 19.2257-33.5972 21.9653-33.6597 24.5764-33.5972 30.9236-33.5382 30.6111-22.8333 24.5764-22.8333Z" fill="#E79759" transform="matrix(1 0 0 1.00811 1046.98 195.381)"/><path d="M47.5347-21.7153C47.5347-51.8299 2.86111-51.8299 2.86111-21.7153 2.86111 8.46181 47.5347 8.46181 47.5347-21.7153ZM14.309-21.7153C14.309-37.3958 36.1493-37.3958 36.1493-21.7153 36.1493-5.90972 14.309-5.90972 14.309-21.7153Z" fill="#E79759" transform="matrix(1 0 0 1.00811 1090.47 195.381)"/><path d="M35.9618-43.5556 18.2292-43.5556C18.2292-40.3194 18.2292-37.0833 18.2292-33.6597L24.5764-33.6597 24.5764-14.684C24.5764-11.1979 22.3993-9.45833 19.1632-9.45833 15.9271-9.45833 13.3785-11.2604 13.3785-14.684L13.3785-20.1597C9.89236-20.1597 6.28472-20.1597 2.86111-20.1597L2.86111-14.4965C2.86111-4.97917 10.2049 0.496528 19.1632 0.496528 28.125 0.496528 35.9618-4.97917 35.9618-14.4965Z" fill="#E79759" transform="matrix(1 0 0 1.00811 1140.87 195.381)"/><path d="M32.7292-43.5556C22.5243-43.5556 15.6181-43.5556 5.5382-43.5556 5.5382-29.1181 5.5382-14.559 5.5382 0 15.6181 0 23.0833 0 33.2882 0 33.2882-3.29861 33.2882-6.65625 33.2882-9.89236 26.7535-9.89236 23.0208-9.89236 16.6111-9.89236 16.6111-12.5069 16.6111-14.9965 16.6111-17.5451L31.4201-17.5451C31.4201-20.8438 31.4201-24.1424 31.4201-27.4375L16.6111-27.4375 16.6111-33.5972C23.0208-33.5972 26.2569-33.5972 32.7292-33.5972 32.7292-36.9583 32.7292-40.3194 32.7292-43.5556Z" fill="#E79759" transform="matrix(1 0 0 1.00811 1182.06 195.381)"/><path d="M11.9479-33.5972 11.9479 0C15.6181 0 19.2882 0 22.9583 0L22.9583-33.5972 33.5972-33.5972C33.5972-36.9583 33.5972-40.2569 33.5972-43.5556L1.24306-43.5556C1.24306-40.2569 1.24306-36.9583 1.24306-33.5972Z" fill="#E79759" transform="matrix(1 0 0 1.00811 1219.39 195.381)"/></g></svg>