<svg width="1146" height="145" xmlns="http://www.w3.org/2000/svg" xmlns:xlink="http://www.w3.org/1999/xlink" xml:space="preserve" overflow="hidden"><defs><clipPath id="clip0"><rect x="72" y="274" width="1146" height="145"/></clipPath></defs><g clip-path="url(#clip0)" transform="translate(-72 -274)"><path d="M160.648 38.9778C160.648 23.9409 148.587 12.2413 133.519 12.2413L96.3298 12.2413 96.3298 99.3476 137.134 99.3476C154.939 99.3476 164.145 87.0125 164.263 71.8506 164.263 64.1342 160.891 57.6645 153.814 54.0494 158.037 50.5559 160.648 44.2043 160.648 38.9778ZM135.523 64.7419C144.486 64.7419 144.608 79.5704 135.644 79.5704L117.84 79.5704 117.84 64.7419ZM131.786 32.1435C140.749 32.1435 140.749 46.208 131.908 46.208L117.84 46.208 117.84 32.1435ZM207.578 79.8135 207.578 31.6573 217.757 31.6573 217.757 12.2413 175.345 12.2413 175.345 31.6573 185.551 31.6573 185.551 79.8135 174.463 79.8135 174.463 99.3476 218.639 99.3476 218.639 79.8135ZM287.562 12.2413C267.177 12.2413 253.352 12.2413 233.207 12.2413 233.207 41.1066 233.207 70.2427 233.207 99.3476 253.352 99.3476 268.299 99.3476 288.687 99.3476 288.687 92.7564 288.687 86.0401 288.687 79.5704 275.623 79.5704 268.177 79.5704 255.356 79.5704 255.356 74.344 255.356 69.3606 255.356 64.2557L284.951 64.2557C284.951 57.6645 284.951 51.0698 284.951 44.4786L255.356 44.4786 255.356 32.1435C268.177 32.1435 274.651 32.1435 287.562 32.1435 287.562 25.4273 287.562 18.7145 287.562 12.2413ZM374.8 99.4691 382.76 99.4691 382.76 12.2413C375.165 12.2413 367.601 12.2413 360.007 12.2413L360.007 54.928 315.952 11.8767 307.871 11.8767 307.871 99.3476C315.434 99.3476 323.151 99.3476 330.867 99.3476L330.867 56.5394ZM416.99 12.2413 395.571 12.2413 395.571 15.5856 432.909 100.351 442.359 100.351 479.333 15.5856 479.333 12.2413 457.913 12.2413 438.014 61.5227 437.406 61.5227ZM546.634 12.2413C526.249 12.2413 512.424 12.2413 492.282 12.2413 492.282 41.1066 492.282 70.2427 492.282 99.3476 512.424 99.3476 527.374 99.3476 547.759 99.3476 547.759 92.7564 547.759 86.0401 547.759 79.5704 534.695 79.5704 527.253 79.5704 514.431 79.5704 514.431 74.344 514.431 69.3606 514.431 64.2557L544.022 64.2557C544.022 57.6645 544.022 51.0698 544.022 44.4786L514.431 44.4786 514.431 32.1435C527.253 32.1435 533.722 32.1435 546.634 32.1435 546.634 25.4273 546.634 18.7145 546.634 12.2413ZM633.872 99.4691 641.835 99.4691 641.835 12.2413C634.237 12.2413 626.673 12.2413 619.078 12.2413L619.078 54.928 575.023 11.8767 566.942 11.8767 566.942 99.3476C574.506 99.3476 582.226 99.3476 589.942 99.3476L589.942 56.5394ZM697.725 80.5706C691.252 80.5706 684.386 77.077 684.386 69.9684L684.386 12.2413C677.431 12.2413 670.079 12.2413 663.119 12.2413L663.119 70.3643C663.119 89.5024 679.92 100.594 697.725 100.594 715.62 100.594 732.178 89.5024 732.178 70.3643L732.178 12.2413C725.222 12.2413 717.988 12.2413 710.911 12.2413L710.911 69.9684C710.911 77.077 704.195 80.5706 697.725 80.5706ZM808.196 12.2413C787.811 12.2413 773.986 12.2413 753.844 12.2413 753.844 41.1066 753.844 70.2427 753.844 99.3476 773.986 99.3476 788.933 99.3476 809.321 99.3476 809.321 92.7564 809.321 86.0401 809.321 79.5704 796.257 79.5704 788.811 79.5704 775.99 79.5704 775.99 74.344 775.99 69.3606 775.99 64.2557L805.584 64.2557C805.584 57.6645 805.584 51.0698 805.584 44.4786L775.99 44.4786 775.99 32.1435C788.811 32.1435 795.284 32.1435 808.196 32.1435 808.196 25.4273 808.196 18.7145 808.196 12.2413ZM857.498 55.7788C857.62 85.4011 880.012 100.351 902.157 100.23 920.691 100.23 940.229 90.506 943.479 65.8671 935.884 65.8671 929.047 65.8671 921.573 65.8671 919.205 75.1948 911.607 79.9351 902.157 79.9351 888.975 79.8135 880.498 68.6001 880.498 55.7788 880.498 41.3497 889.093 31.5358 902.157 31.5358 911.485 31.5358 918.08 35.5155 921.209 44.3571 928.803 44.3571 935.52 44.3571 943.115 44.3571 939.742 21.0829 920.205 11.2412 902.157 11.2412 880.012 11.2412 857.62 26.1878 857.498 55.7788ZM1033.08 12.2413C1025.48 12.2413 1017.89 12.2413 1010.29 12.2413L1010.29 43.8396 983.405 43.8396 983.405 12.2413C975.81 12.2413 968.094 12.2413 960.652 12.2413L960.652 99.3476C968.094 99.3476 975.81 99.3476 983.405 99.3476L983.405 64.3773 1010.29 64.3773 1010.29 99.3476C1017.89 99.3476 1025.48 99.3476 1033.08 99.3476ZM1109.7 12.2413C1089.32 12.2413 1075.49 12.2413 1055.35 12.2413 1055.35 41.1066 1055.35 70.2427 1055.35 99.3476 1075.49 99.3476 1090.44 99.3476 1110.83 99.3476 1110.83 92.7564 1110.83 86.0401 1110.83 79.5704 1097.76 79.5704 1090.32 79.5704 1077.49 79.5704 1077.49 74.344 1077.49 69.3606 1077.49 64.2557L1107.09 64.2557C1107.09 57.6645 1107.09 51.0698 1107.09 44.4786L1077.49 44.4786 1077.49 32.1435C1090.32 32.1435 1096.79 32.1435 1109.7 32.1435 1109.7 25.4273 1109.7 18.7145 1109.7 12.2413ZM1190.98 12.2413 1125.03 12.2413C1125.03 19.8396 1125.03 24.5487 1125.03 32.1435L1157.38 32.1435 1121.78 95.9756 1121.78 99.3476 1191.35 99.3476C1191.35 91.7527 1191.35 87.0125 1191.35 79.4489L1155.26 79.4489 1190.98 15.5856Z" stroke="#183650" stroke-width="4.66679" fill="#183650" transform="matrix(1.00062 0 0 1 -0.554503 291.385)"/></g></svg>